<svg xmlns="http://www.w3.org/2000/svg" viewBox="0 0 512 512" width="512" height="512">
  <defs>
    <linearGradient id="bgGrad" x1="0%" y1="0%" x2="100%" y2="100%">
      <stop offset="0%" stop-color="#4f46e5" />
      <stop offset="100%" stop-color="#2563eb" />
    </linearGradient>

    <linearGradient id="botGrad" x1="0%" y1="0%" x2="100%" y2="100%">
      <stop offset="0%" stop-color="#22d3ee" />
      <stop offset="100%" stop-color="#0ea5e9" />
    </linearGradient>

    <filter id="shadow" x="-20%" y="-20%" width="140%" height="140%">
      <feDropShadow dx="0" dy="12" stdDeviation="16" flood-color="#000000" flood-opacity="0.4"/>
    </filter>
  </defs>

  <rect width="512" height="512" rx="112" fill="url(#bgGrad)"/>
  <rect x="2" y="2" width="508" height="508" rx="110" fill="none" stroke="#ffffff" stroke-opacity="0.2" stroke-width="4"/>

  <g filter="url(#shadow)">
    <rect x="86" y="126" width="340" height="260" rx="16" fill="#1e293b"/>

    <path d="M 86 142 C 86 133.163 93.163 126 102 126 L 410 126 C 418.837 126 426 133.163 426 142 L 426 166 L 86 166 Z" fill="#334155"/>

    <circle cx="106" cy="146" r="6" fill="#ef4444"/>
    <circle cx="126" cy="146" r="6" fill="#f59e0b"/>
    <circle cx="146" cy="146" r="6" fill="#10b981"/>

    <rect x="86" y="166" width="85" height="4" fill="#ea4335"/>
    <rect x="171" y="166" width="85" height="4" fill="#fbbc05"/>
    <rect x="256" y="166" width="85" height="4" fill="#34a853"/>
    <rect x="341" y="166" width="85" height="4" fill="#4285f4"/>

    <rect x="110" y="210" width="40" height="6" rx="3" fill="#ffffff" opacity="0.1"/>
    <rect x="110" y="230" width="60" height="6" rx="3" fill="#ffffff" opacity="0.1"/>
    <rect x="110" y="250" width="30" height="6" rx="3" fill="#ffffff" opacity="0.1"/>
    <rect x="362" y="270" width="40" height="6" rx="3" fill="#ffffff" opacity="0.1"/>
    <rect x="342" y="290" width="60" height="6" rx="3" fill="#ffffff" opacity="0.1"/>

    <line x1="256" y1="226" x2="256" y2="196" stroke="url(#botGrad)" stroke-width="8" stroke-linecap="round"/>
    <circle cx="256" cy="190" r="10" fill="#facc15"/>

    <rect x="194" y="250" width="12" height="32" rx="4" fill="#0ea5e9"/>
    <rect x="306" y="250" width="12" height="32" rx="4" fill="#0ea5e9"/>

    <rect x="206" y="226" width="100" height="80" rx="20" fill="url(#botGrad)"/>

    <circle cx="230" cy="256" r="8" fill="#0f172a"/>
    <circle cx="282" cy="256" r="8" fill="#0f172a"/>
    <circle cx="233" cy="253" r="3" fill="#ffffff"/>
    <circle cx="285" cy="253" r="3" fill="#ffffff"/>

    <path d="M 240 280 Q 256 290 272 280" stroke="#0f172a" stroke-width="4" fill="none" stroke-linecap="round"/>

    <polygon points="320,170 324,186 340,190 324,194 320,210 316,194 300,190 316,186" fill="#facc15"/>
    <polygon points="160,280 162,288 170,290 162,292 160,300 158,292 150,290 158,288" fill="#22d3ee"/>
  </g>
</svg>
